<?xml version="1.0" encoding="UTF-8"?>
<!DOCTYPE svg PUBLIC "-//W3C//DTD SVG 1.1//EN" "http://www.w3.org/Graphics/SVG/1.1/DTD/svg11.dtd">
<svg xmlns="http://www.w3.org/2000/svg" version="1.1" width="512px" height="512px" style="shape-rendering:geometricPrecision; text-rendering:geometricPrecision; image-rendering:optimizeQuality; fill-rule:evenodd; clip-rule:evenodd" xmlns:xlink="http://www.w3.org/1999/xlink">
<g><path style="opacity:0.988" fill="#4c97e3" d="M 86.5,-0.5 C 108.167,-0.5 129.833,-0.5 151.5,-0.5C 155.762,1.9262 159.262,5.25954 162,9.5C 166.717,34.4713 171.217,59.4713 175.5,84.5C 163.167,84.5 150.833,84.5 138.5,84.5C 135.833,67.8333 133.167,51.1667 130.5,34.5C 115.833,34.5 101.167,34.5 86.5,34.5C 86.5,22.8333 86.5,11.1667 86.5,-0.5 Z"/></g>
<g><path style="opacity:0.996" fill="#53c1fe" d="M 138.5,84.5 C 150.833,84.5 163.167,84.5 175.5,84.5C 245.17,84.1667 314.837,84.5 384.5,85.5C 380.518,99.4265 376.852,113.426 373.5,127.5C 363.567,163.231 354.567,199.231 346.5,235.5C 286.163,235.833 225.83,235.5 165.5,234.5C 159.27,198.615 152.604,162.948 145.5,127.5C 143.058,113.184 140.725,98.8506 138.5,84.5 Z"/></g>
<g><path style="opacity:1" fill="#fdfeff" d="M 200.5,126.5 C 212.167,126.5 223.833,126.5 235.5,126.5C 235.5,148.833 235.5,171.167 235.5,193.5C 223.833,193.5 212.167,193.5 200.5,193.5C 200.5,171.167 200.5,148.833 200.5,126.5 Z"/></g>
<g><path style="opacity:1" fill="#fdfeff" d="M 279.5,126.5 C 291.167,126.5 302.833,126.5 314.5,126.5C 314.5,148.833 314.5,171.167 314.5,193.5C 302.833,193.5 291.167,193.5 279.5,193.5C 279.5,171.167 279.5,148.833 279.5,126.5 Z"/></g>
<g><path style="opacity:0.997" fill="#e2ecef" d="M 145.5,127.5 C 152.604,162.948 159.27,198.615 165.5,234.5C 225.83,235.5 286.163,235.833 346.5,235.5C 354.567,199.231 363.567,163.231 373.5,127.5C 399.835,127.333 426.169,127.5 452.5,128C 460.105,129.939 465.605,134.439 469,141.5C 470.492,232.11 470.992,322.776 470.5,413.5C 415.669,414.499 360.669,414.832 305.5,414.5C 305.5,426.833 305.5,439.167 305.5,451.5C 272.167,451.5 238.833,451.5 205.5,451.5C 205.5,439.167 205.5,426.833 205.5,414.5C 150.331,414.832 95.3308,414.499 40.5,413.5C 40.0076,322.776 40.5076,232.11 42,141.5C 45.3688,134.471 50.8688,129.971 58.5,128C 87.4981,127.5 116.498,127.333 145.5,127.5 Z"/></g>
<g><path style="opacity:1" fill="#738394" d="M 187.5,268.5 C 215.672,267.838 229.172,281.504 228,309.5C 219.565,332.134 203.732,339.967 180.5,333C 165.126,324.748 158.959,311.915 162,294.5C 166.017,281.318 174.517,272.651 187.5,268.5 Z"/></g>
<g><path style="opacity:1" fill="#738394" d="M 314.5,268.5 C 334.968,266.49 348.468,275.157 355,294.5C 357.637,313.063 350.47,326.23 333.5,334C 311.534,339.436 296.701,331.603 289,310.5C 286.204,289.495 294.704,275.495 314.5,268.5 Z"/></g>
<g><path style="opacity:0.995" fill="#4c97e3" d="M 40.5,413.5 C 95.3308,414.499 150.331,414.832 205.5,414.5C 205.5,426.833 205.5,439.167 205.5,451.5C 238.833,451.5 272.167,451.5 305.5,451.5C 305.5,439.167 305.5,426.833 305.5,414.5C 360.669,414.832 415.669,414.499 470.5,413.5C 481.167,413.5 491.833,413.5 502.5,413.5C 502.667,439.502 502.5,465.502 502,491.5C 500.361,500.964 495.195,507.631 486.5,511.5C 332.5,511.5 178.5,511.5 24.5,511.5C 15.8052,507.631 10.6385,500.964 9,491.5C 8.50003,465.502 8.33336,439.502 8.5,413.5C 19.1667,413.5 29.8333,413.5 40.5,413.5 Z"/></g>
</svg>
